<svg width="36" height="36" viewBox="0 0 36 36" fill="none" xmlns="http://www.w3.org/2000/svg">
<path d="M35.4 20.3999H34.8V18.5999C34.7984 17.4085 34.092 16.3309 33 15.8543V6.5999C32.9999 6.3614 32.8586 6.1457 32.64 6.0503C32.8741 5.67515 32.9987 5.2421 33 4.7999C33 3.47443 31.9255 2.3999 30.6 2.3999C29.2745 2.3999 28.2 3.47443 28.2 4.7999C28.2025 5.22245 28.3177 5.63668 28.5336 5.9999H7.4664C7.68233 5.63668 7.79753 5.22245 7.8 4.7999C7.8 3.47443 6.72548 2.3999 5.4 2.3999C4.07453 2.3999 3 3.47443 3 4.7999C3.00128 5.2421 3.12593 5.67515 3.36 6.0503C3.14145 6.1457 3.00015 6.3614 3 6.5999V15.8543C1.908 16.3309 1.20158 17.4085 1.2 18.5999V20.3999H0.6C0.26865 20.3999 0 20.6686 0 20.9999V29.3999C0 29.7313 0.26865 29.9999 0.6 29.9999H1.2V32.9999C1.2 33.3313 1.46865 33.5999 1.8 33.5999H4.2C4.53135 33.5999 4.8 33.3313 4.8 32.9999V29.9999H31.2V32.9999C31.2 33.3313 31.4687 33.5999 31.8 33.5999H34.2C34.5314 33.5999 34.8 33.3313 34.8 32.9999V29.9999H35.4C35.7313 29.9999 36 29.7313 36 29.3999V20.9999C36 20.6686 35.7313 20.3999 35.4 20.3999ZM30.6 3.5999C31.2628 3.5999 31.8 4.13713 31.8 4.7999C31.8 5.46268 31.2628 5.9999 30.6 5.9999C29.9372 5.9999 29.4 5.46268 29.4 4.7999C29.4 4.13713 29.9372 3.5999 30.6 3.5999ZM5.4 3.5999C6.06278 3.5999 6.6 4.13713 6.6 4.7999C6.6 5.46268 6.06278 5.9999 5.4 5.9999C4.73723 5.9999 4.2 5.46268 4.2 4.7999C4.2 4.13713 4.73723 3.5999 5.4 3.5999ZM4.2 7.1999H31.8V15.5999H29.3844C29.7815 15.0837 29.9978 14.4512 30 13.7999V12.5999C29.9981 10.9439 28.656 9.60185 27 9.5999H22.2C20.544 9.60185 19.202 10.9439 19.2 12.5999V13.7999C19.2022 14.4512 19.4186 15.0837 19.8156 15.5999H16.1844C16.5815 15.0837 16.7978 14.4512 16.8 13.7999V12.5999C16.798 10.9439 15.456 9.60185 13.8 9.5999H9C7.344 9.60185 6.00195 10.9439 6 12.5999V13.7999C6.00218 14.4512 6.21855 15.0837 6.6156 15.5999H4.2V7.1999ZM28.8 12.5999V13.7999C28.8 14.794 27.9941 15.5999 27 15.5999H22.2C21.2059 15.5999 20.4 14.794 20.4 13.7999V12.5999C20.4 11.6058 21.2059 10.7999 22.2 10.7999H27C27.9941 10.7999 28.8 11.6058 28.8 12.5999ZM15.6 12.5999V13.7999C15.6 14.794 14.7941 15.5999 13.8 15.5999H9C8.00588 15.5999 7.2 14.794 7.2 13.7999V12.5999C7.2 11.6058 8.00588 10.7999 9 10.7999H13.8C14.7941 10.7999 15.6 11.6058 15.6 12.5999ZM2.4 18.5999C2.4 17.6058 3.20588 16.7999 4.2 16.7999H31.8C32.7941 16.7999 33.6 17.6058 33.6 18.5999V20.3999H2.4V18.5999ZM3.6 32.3999H2.4V29.9999H3.6V32.3999ZM33.6 32.3999H32.4V29.9999H33.6V32.3999ZM34.8 28.7999H1.2V21.5999H34.8V28.7999Z" fill="#E6C0A2"/>
<path d="M5.39999 26.3999H2.99999C2.66864 26.3999 2.39999 26.6686 2.39999 26.9999C2.39999 27.3313 2.66864 27.5999 2.99999 27.5999H5.39999C5.73134 27.5999 5.99999 27.3313 5.99999 26.9999C5.99999 26.6686 5.73134 26.3999 5.39999 26.3999Z" fill="#E6C0A2"/>
<path d="M33 26.3999H7.80001C7.46866 26.3999 7.20001 26.6686 7.20001 26.9999C7.20001 27.3313 7.46866 27.5999 7.80001 27.5999H33C33.3314 27.5999 33.6 27.3313 33.6 26.9999C33.6 26.6686 33.3314 26.3999 33 26.3999Z" fill="#E6C0A2"/>
</svg>
