<svg width="55" height="55" viewBox="0 0 55 55" fill="none" xmlns="http://www.w3.org/2000/svg">
<path d="M54.0833 31.1667H53.1667V28.4167C53.1643 26.5964 52.085 24.9501 50.4167 24.222V10.0833C50.4164 9.71895 50.2006 9.38941 49.8667 9.24366C50.2243 8.67051 50.4147 8.00891 50.4167 7.33332C50.4167 5.30829 48.775 3.66666 46.75 3.66666C44.725 3.66666 43.0833 5.30829 43.0833 7.33332C43.0871 7.97889 43.2631 8.61173 43.593 9.16666H11.407C11.7369 8.61173 11.9129 7.97889 11.9167 7.33332C11.9167 5.30829 10.275 3.66666 8.25 3.66666C6.22497 3.66666 4.58333 5.30829 4.58333 7.33332C4.58528 8.00891 4.77572 8.67051 5.13333 9.24366C4.79944 9.38941 4.58356 9.71895 4.58333 10.0833V24.222C2.915 24.9501 1.83574 26.5964 1.83333 28.4167V31.1667H0.916667C0.410437 31.1667 0 31.5771 0 32.0833V44.9167C0 45.4229 0.410437 45.8333 0.916667 45.8333H1.83333V50.4167C1.83333 50.9229 2.24377 51.3333 2.75 51.3333H6.41667C6.9229 51.3333 7.33333 50.9229 7.33333 50.4167V45.8333H47.6667V50.4167C47.6667 50.9229 48.0771 51.3333 48.5833 51.3333H52.25C52.7562 51.3333 53.1667 50.9229 53.1667 50.4167V45.8333H54.0833C54.5896 45.8333 55 45.4229 55 44.9167V32.0833C55 31.5771 54.5896 31.1667 54.0833 31.1667ZM46.75 5.49999C47.7626 5.49999 48.5833 6.32075 48.5833 7.33332C48.5833 8.3459 47.7626 9.16666 46.75 9.16666C45.7374 9.16666 44.9167 8.3459 44.9167 7.33332C44.9167 6.32075 45.7374 5.49999 46.75 5.49999ZM8.25 5.49999C9.26257 5.49999 10.0833 6.32075 10.0833 7.33332C10.0833 8.3459 9.26257 9.16666 8.25 9.16666C7.23743 9.16666 6.41667 8.3459 6.41667 7.33332C6.41667 6.32075 7.23743 5.49999 8.25 5.49999ZM6.41667 11H48.5833V23.8333H44.8928C45.4994 23.0446 45.83 22.0784 45.8333 21.0833V19.25C45.8304 16.72 43.78 14.6696 41.25 14.6667H33.9167C31.3867 14.6696 29.3363 16.72 29.3333 19.25V21.0833C29.3367 22.0784 29.6672 23.0446 30.2738 23.8333H24.7262C25.3328 23.0446 25.6633 22.0784 25.6667 21.0833V19.25C25.6637 16.72 23.6133 14.6696 21.0833 14.6667H13.75C11.22 14.6696 9.16965 16.72 9.16667 19.25V21.0833C9.16999 22.0784 9.50056 23.0446 10.1072 23.8333H6.41667V11ZM44 19.25V21.0833C44 22.6021 42.7688 23.8333 41.25 23.8333H33.9167C32.3979 23.8333 31.1667 22.6021 31.1667 21.0833V19.25C31.1667 17.7312 32.3979 16.5 33.9167 16.5H41.25C42.7688 16.5 44 17.7312 44 19.25ZM23.8333 19.25V21.0833C23.8333 22.6021 22.6021 23.8333 21.0833 23.8333H13.75C12.2312 23.8333 11 22.6021 11 21.0833V19.25C11 17.7312 12.2312 16.5 13.75 16.5H21.0833C22.6021 16.5 23.8333 17.7312 23.8333 19.25ZM3.66667 28.4167C3.66667 26.8979 4.89786 25.6667 6.41667 25.6667H48.5833C50.1021 25.6667 51.3333 26.8979 51.3333 28.4167V31.1667H3.66667V28.4167ZM5.5 49.5H3.66667V45.8333H5.5V49.5ZM51.3333 49.5H49.5V45.8333H51.3333V49.5ZM53.1667 44H1.83333V33H53.1667V44Z" fill="#E6C0A2"/>
<path d="M8.25002 40.3333H4.58335C4.07712 40.3333 3.66669 40.7437 3.66669 41.25C3.66669 41.7562 4.07712 42.1666 4.58335 42.1666H8.25002C8.75625 42.1666 9.16669 41.7562 9.16669 41.25C9.16669 40.7437 8.75625 40.3333 8.25002 40.3333Z" fill="#E6C0A2"/>
<path d="M50.4167 40.3333H11.9167C11.4104 40.3333 11 40.7437 11 41.25C11 41.7562 11.4104 42.1666 11.9167 42.1666H50.4167C50.9229 42.1666 51.3333 41.7562 51.3333 41.25C51.3333 40.7437 50.9229 40.3333 50.4167 40.3333Z" fill="#E6C0A2"/>
</svg>
