<svg width="38" height="38" viewBox="0 0 38 38" fill="none" xmlns="http://www.w3.org/2000/svg">
<path fill-rule="evenodd" clip-rule="evenodd" d="M18.8077 0C8.42049 0 0 8.42049 0 18.8077C0 29.1949 8.42049 37.6154 18.8077 37.6154C29.1949 37.6154 37.6154 29.1949 37.6154 18.8077C37.6154 8.42049 29.1949 0 18.8077 0ZM14.6726 8.83753C15.7425 8.78883 16.0844 8.77692 18.8086 8.77692H18.8055C21.5306 8.77692 21.8712 8.78883 22.9411 8.83753C24.009 8.88643 24.7383 9.05549 25.3778 9.30354C26.0382 9.55954 26.5961 9.90226 27.1541 10.4602C27.7121 11.0178 28.0548 11.5774 28.3118 12.2372C28.5584 12.875 28.7277 13.6039 28.7779 14.6717C28.8259 15.7417 28.8385 16.0836 28.8385 18.8078C28.8385 21.532 28.8259 21.8731 28.7779 22.943C28.7277 24.0105 28.5584 24.7396 28.3118 25.3776C28.0548 26.0371 27.7121 26.5968 27.1541 27.1543C26.5968 27.7123 26.038 28.0558 25.3784 28.312C24.7402 28.5601 24.0105 28.7292 22.9426 28.7781C21.8727 28.8268 21.5318 28.8387 18.8074 28.8387C16.0834 28.8387 15.7417 28.8268 14.6717 28.7781C13.6041 28.7292 12.875 28.5601 12.2367 28.312C11.5774 28.0558 11.0178 27.7123 10.4604 27.1543C9.90268 26.5968 9.55996 26.0371 9.30355 25.3774C9.0557 24.7396 8.88664 24.0107 8.83753 22.9428C8.78905 21.8729 8.77693 21.532 8.77693 18.8078C8.77693 16.0836 8.78946 15.7415 8.83732 14.6715C8.88538 13.6041 9.05466 12.875 9.30334 12.2369C9.56038 11.5774 9.9031 11.0178 10.4611 10.4602C11.0186 9.90247 11.5783 9.55975 12.238 9.30354C12.8758 9.05549 13.6047 8.88643 14.6726 8.83753Z" fill="#E6C0A2"/>
<path fill-rule="evenodd" clip-rule="evenodd" d="M17.9088 10.5845C18.0835 10.5843 18.2715 10.5843 18.4743 10.5844L18.8086 10.5845C21.4869 10.5845 21.8043 10.5942 22.8619 10.6422C23.8399 10.6869 24.3707 10.8504 24.7243 10.9877C25.1924 11.1695 25.5262 11.3868 25.8771 11.7379C26.2281 12.089 26.4455 12.4233 26.6277 12.8914C26.765 13.2446 26.9286 13.7754 26.9731 14.7534C27.0212 15.8108 27.0316 16.1285 27.0316 18.8055C27.0316 21.4825 27.0212 21.8001 26.9731 22.8575C26.9284 23.8355 26.765 24.3663 26.6277 24.7195C26.4459 25.1876 26.2281 25.5209 25.8771 25.8718C25.526 26.2229 25.1927 26.4402 24.7243 26.622C24.3712 26.76 23.8399 26.923 22.8619 26.9677C21.8045 27.0157 21.4869 27.0262 18.8086 27.0262C16.1302 27.0262 15.8127 27.0157 14.7553 26.9677C13.7773 26.9225 13.2465 26.7591 12.8927 26.6218C12.4246 26.44 12.0902 26.2227 11.7392 25.8716C11.3881 25.5205 11.1707 25.187 10.9885 24.7187C10.8512 24.3655 10.6876 23.8347 10.6431 22.8567C10.595 21.7993 10.5854 21.4816 10.5854 18.803C10.5854 16.1243 10.595 15.8083 10.6431 14.7509C10.6878 13.7729 10.8512 13.2421 10.9885 12.8885C11.1703 12.4204 11.3881 12.086 11.7392 11.735C12.0902 11.3839 12.4246 11.1665 12.8927 10.9843C13.2463 10.8464 13.7773 10.6834 14.7553 10.6385C15.6807 10.5967 16.0393 10.5841 17.9088 10.582V10.5845ZM24.163 12.2502C23.4985 12.2502 22.9593 12.7887 22.9593 13.4535C22.9593 14.118 23.4985 14.6572 24.163 14.6572C24.8276 14.6572 25.3667 14.118 25.3667 13.4535C25.3667 12.789 24.8276 12.2498 24.163 12.2498V12.2502ZM13.6574 18.8077C13.6574 15.9629 15.9637 13.6565 18.8084 13.6564C21.6532 13.6564 23.9591 15.9629 23.9591 18.8077C23.9591 21.6525 21.6534 23.9579 18.8086 23.9579C15.9638 23.9579 13.6574 21.6525 13.6574 18.8077Z" fill="#E6C0A2"/>
<path fill-rule="evenodd" clip-rule="evenodd" d="M18.8086 15.4644C20.6552 15.4644 22.1523 16.9613 22.1523 18.808C22.1523 20.6545 20.6552 22.1516 18.8086 22.1516C16.9619 22.1516 15.465 20.6545 15.465 18.808C15.465 16.9613 16.9619 15.4644 18.8086 15.4644V15.4644Z" fill="#E6C0A2"/>
</svg>
