<svg width="49" height="49" viewBox="0 0 49 49" fill="none" xmlns="http://www.w3.org/2000/svg">
<g clip-path="url(#clip0)">
<path d="M25.2251 31.0034H23.7751V31.0035H2.89496V46.1879V46.316H23.775H46.105V41.6952V40.2452V37.0743V35.6243V31.0035H25.2251V31.0034ZM23.775 35.6242V37.0742V40.2451V41.6951V44.7378H4.34496V32.4535H23.775V35.6242ZM44.6551 44.866H25.225V41.6952H44.6551V44.866ZM44.6551 40.2452H25.225V37.0743H44.6551V40.2452ZM44.6551 35.6242H25.225V32.4534H44.6551V35.6242Z" fill="#E6C0A2"/>
<path d="M0.052063 0V13.6991H11.6273V16.5878H37.3727V13.6991H48.9479V0H0.052063ZM35.9227 15.1378H13.0773V13.6991H35.9227V15.1378ZM37.3727 12.2491H11.6273H1.50206V1.45H47.4979V12.2491H37.3727Z" fill="#E6C0A2"/>
<path d="M32.1851 2.30453H30.7351H18.265H16.815H2.89496V11.3946H16.815H18.265H30.7351H32.1851H46.1051V2.30453H32.1851ZM16.815 9.94461H4.34496V3.75453H16.815V9.94461ZM30.7351 9.94461H18.265V3.75453H30.7351V9.94461ZM44.6551 9.94461H32.1851V3.75453H44.6551V9.94461Z" fill="#E6C0A2"/>
<path d="M45.9436 28.3195C46.2461 27.9095 46.4535 27.4243 46.5299 26.8944L47.2303 22.0355H36.8722L37.5726 26.8943C37.6489 27.4241 37.8565 27.9095 38.1588 28.3195H35.0577V25.9372H32.9968V24.0847H30.9265V25.5347H31.5469V25.9372H27.9661V25.5347H28.6646V24.0847H26.5161V25.9372H22.4844V24.0847H20.414V25.5347H21.0344V25.9372H17.4536V25.5347H18.152V24.0847H16.0035V25.9372H13.9426V28.3195H0.052063V49H48.9479V28.3195H45.9436ZM45.5564 23.4856L45.0949 26.6877C44.9726 27.5358 44.2342 28.1755 43.3772 28.1755H40.7254C39.8685 28.1755 39.1299 27.5359 39.0076 26.6876L38.5462 23.4856H45.5564ZM15.3925 27.3872H16.0034H22.4842H26.5159H32.9967H33.6076V28.3195H15.3925V27.3872ZM47.498 47.55H1.50206V29.7696H13.9424H35.0576H47.498V47.55Z" fill="#E6C0A2"/>
<path d="M12.1976 7.71695H8.51453V9.16695H12.1976V7.71695Z" fill="#E6C0A2"/>
<path d="M14.4208 7.71695H12.9708V9.16608H14.4208V7.71695Z" fill="#E6C0A2"/>
<path d="M15.2493 34.6406H11.5663V36.0906H15.2493V34.6406Z" fill="#E6C0A2"/>
<path d="M17.4726 34.6406H16.0226V36.0897H17.4726V34.6406Z" fill="#E6C0A2"/>
<path d="M36.2927 33.3144H32.6097V34.7644H36.2927V33.3144Z" fill="#E6C0A2"/>
<path d="M38.516 33.3144H37.066V34.7635H38.516V33.3144Z" fill="#E6C0A2"/>
<path d="M36.2927 37.935H32.6097V39.385H36.2927V37.935Z" fill="#E6C0A2"/>
<path d="M38.516 37.935H37.066V39.3839H38.516V37.935Z" fill="#E6C0A2"/>
<path d="M36.2927 42.5557H32.6097V44.0057H36.2927V42.5557Z" fill="#E6C0A2"/>
<path d="M38.516 42.5557H37.066V44.0048H38.516V42.5557Z" fill="#E6C0A2"/>
<path d="M25.8826 7.71695H22.1996V9.16695H25.8826V7.71695Z" fill="#E6C0A2"/>
<path d="M28.106 7.71695H26.656V9.16608H28.106V7.71695Z" fill="#E6C0A2"/>
<path d="M39.9477 7.71695H36.2647V9.16695H39.9477V7.71695Z" fill="#E6C0A2"/>
<path d="M42.171 7.71695H40.721V9.16608H42.171V7.71695Z" fill="#E6C0A2"/>
</g>
<defs>
<clipPath id="clip0">
<rect width="49" height="49" fill="white"/>
</clipPath>
</defs>
</svg>
