<svg width="32" height="32" viewBox="0 0 32 32" fill="none" xmlns="http://www.w3.org/2000/svg">
<g clip-path="url(#clip0)">
<path d="M16.4735 20.2471H15.5266V20.2471H1.89056V30.1634V30.2471H15.5265H30.1094V27.2294V26.2825V24.2118V23.2648V20.2471H16.4735V20.2471ZM15.5265 23.2648V24.2117V26.2824V27.2294V29.2164H2.8375V21.1941H15.5265V23.2648ZM29.1625 29.3002H16.4734V27.2294H29.1625V29.3002ZM29.1625 26.2825H16.4734V24.2118H29.1625V26.2825ZM29.1625 23.2648H16.4734V21.194H29.1625V23.2648Z" fill="#E6C0A2"/>
<path d="M0.0339966 0V8.94638H7.59331V10.8329H24.4067V8.94638H31.966V0H0.0339966ZM23.4597 9.88594H8.54025V8.94638H23.4597V9.88594ZM24.4067 7.99944H7.59331H0.980934V0.946938H31.0191V7.99944H24.4067Z" fill="#E6C0A2"/>
<path d="M21.0188 1.50488H20.0719H11.9281H10.9812H1.89056V7.44126H10.9812H11.9281H20.0719H21.0188H30.1094V1.50488H21.0188ZM10.9812 6.49432H2.8375V2.45182H10.9812V6.49432ZM20.0719 6.49432H11.9281V2.45182H20.0719V6.49432ZM29.1625 6.49432H21.0188V2.45182H29.1625V6.49432Z" fill="#E6C0A2"/>
<path d="M30.004 18.4945C30.2015 18.2268 30.337 17.9099 30.3869 17.5638L30.8442 14.3906H24.0798L24.5372 17.5638C24.5871 17.9098 24.7226 18.2268 24.9201 18.4945H22.8948V16.9387H21.5489V15.7289H20.1969V16.6758H20.6021V16.9387H18.2636V16.6758H18.7197V15.7289H17.3166V16.9387H14.6837V15.7289H13.3316V16.6758H13.7367V16.9387H11.3982V16.6758H11.8544V15.7289H10.4512V16.9387H9.10537V18.4945H0.0339966V32.0001H31.966V18.4945H30.004ZM29.7511 15.3376L29.4498 17.4288C29.3699 17.9827 28.8876 18.4004 28.3279 18.4004H26.5962C26.0366 18.4004 25.5542 17.9827 25.4744 17.4288L25.173 15.3376H29.7511ZM10.0522 17.8856H10.4512H14.6836H17.3165H21.5489H21.9478V18.4945H10.0522V17.8856ZM31.0191 31.0532H0.980934V19.4415H9.10525H22.8947H31.0191V31.0532Z" fill="#E6C0A2"/>
<path d="M7.96573 5.03955H5.56049V5.98649H7.96573V5.03955Z" fill="#E6C0A2"/>
<path d="M9.4177 5.03955H8.47076V5.98592H9.4177V5.03955Z" fill="#E6C0A2"/>
<path d="M9.95878 22.6226H7.55353V23.5695H9.95878V22.6226Z" fill="#E6C0A2"/>
<path d="M11.4107 22.6226H10.4637V23.5689H11.4107V22.6226Z" fill="#E6C0A2"/>
<path d="M23.7014 21.7563H21.2961V22.7033H23.7014V21.7563Z" fill="#E6C0A2"/>
<path d="M25.1533 21.7563H24.2064V22.7027H25.1533V21.7563Z" fill="#E6C0A2"/>
<path d="M23.7014 24.7739H21.2961V25.7209H23.7014V24.7739Z" fill="#E6C0A2"/>
<path d="M25.1533 24.7739H24.2064V25.7202H25.1533V24.7739Z" fill="#E6C0A2"/>
<path d="M23.7014 27.7915H21.2961V28.7384H23.7014V27.7915Z" fill="#E6C0A2"/>
<path d="M25.1533 27.7915H24.2064V28.7378H25.1533V27.7915Z" fill="#E6C0A2"/>
<path d="M16.9029 5.03955H14.4977V5.98649H16.9029V5.03955Z" fill="#E6C0A2"/>
<path d="M18.355 5.03955H17.408V5.98592H18.355V5.03955Z" fill="#E6C0A2"/>
<path d="M26.0883 5.03955H23.683V5.98649H26.0883V5.03955Z" fill="#E6C0A2"/>
<path d="M27.5403 5.03955H26.5933V5.98592H27.5403V5.03955Z" fill="#E6C0A2"/>
</g>
<defs>
<clipPath id="clip0">
<rect width="32" height="32" fill="white"/>
</clipPath>
</defs>
</svg>
