<svg width="14" height="23" viewBox="0 0 14 23" fill="none" xmlns="http://www.w3.org/2000/svg">
<path d="M3.26859 19.8872L9.81513 13.7826L3.26859 7.6779C3.11238 7.53224 2.98847 7.35931 2.90393 7.16899C2.81939 6.97867 2.77588 6.77468 2.77588 6.56868C2.77588 6.36268 2.81939 6.15869 2.90393 5.96837C2.98847 5.77805 3.11238 5.60512 3.26859 5.45946C3.4248 5.31379 3.61025 5.19824 3.81434 5.11941C4.01844 5.04058 4.23719 5 4.4581 5C4.67902 5 4.89777 5.04058 5.10186 5.11941C5.30596 5.19824 5.49141 5.31379 5.64762 5.45946L13.3921 12.6812C14.0501 13.2948 14.0501 14.286 13.3921 14.8997L5.64762 22.1214C5.49152 22.2673 5.30611 22.383 5.102 22.462C4.89789 22.5409 4.67908 22.5815 4.4581 22.5815C4.23713 22.5815 4.01832 22.5409 3.81421 22.462C3.6101 22.383 3.42469 22.2673 3.26859 22.1214C2.62744 21.5078 2.61056 20.5009 3.26859 19.8872Z" fill="#E9C8AE"/>
</svg>
