<svg width="20" height="20" viewBox="0 0 20 20" fill="none" xmlns="http://www.w3.org/2000/svg">
<path d="M11.0305 18.5989C11.0991 18.6217 11.1644 18.6436 11.2339 18.6633C11.9756 18.8732 12.6702 18.78 13.3054 18.3904C13.3095 18.3881 13.3176 18.3836 13.3216 18.3814C13.5542 18.2222 13.8034 18.0882 14.068 17.9483C14.2485 17.8527 14.433 17.7549 14.6098 17.6482C15.448 17.1558 15.6869 16.2996 15.2207 15.4654L13.9307 13.1571C13.7125 12.7477 13.3914 12.4727 13 12.362C12.6118 12.2521 12.192 12.314 11.783 12.5426L10.4183 13.3052C10.3388 13.2248 10.2544 13.1497 10.1731 13.0756C10.0701 12.9817 9.97574 12.8936 9.89486 12.806C9.09463 11.9113 8.43952 10.8532 7.88749 9.57541C7.61323 8.91825 7.45916 8.39056 7.39072 7.87347C7.73993 7.69956 8.07288 7.51083 8.39458 7.32573C8.51202 7.2601 8.63034 7.19132 8.75183 7.12342C9.61843 6.63912 9.85512 5.80269 9.36992 4.93925L8.72946 3.79324C8.65478 3.65961 8.58325 3.52687 8.51084 3.39728C8.36915 3.13901 8.22384 2.86948 8.07227 2.62204C7.85048 2.22519 7.5299 1.9606 7.14168 1.85074C6.75661 1.74177 6.33861 1.79734 5.92913 2.01556L4.49245 2.8158C3.96601 3.11001 3.59132 3.54261 3.37736 4.10592C3.1169 4.80949 3.03331 5.61083 3.11338 6.62894C3.23765 8.2016 3.65563 9.74829 4.42962 11.4946C5.37711 13.6036 6.71274 15.4373 8.40712 16.9429C9.05423 17.5112 9.93688 18.211 11.0305 18.5989ZM5.1664 11.1679C4.42957 9.50708 4.03523 8.04549 3.91841 6.56698C3.84537 5.65654 3.91306 4.98365 4.13279 4.38788C4.27916 4.00317 4.52356 3.71779 4.88712 3.51726L6.3166 2.71839C6.53349 2.60249 6.74383 2.56997 6.92689 2.62177C7.1068 2.67269 7.25944 2.80793 7.38254 3.02344C7.52869 3.26594 7.66585 3.51611 7.80979 3.77844C7.88132 3.91118 7.95511 4.04797 8.03295 4.1825L8.67341 5.32851C8.93593 5.79825 8.8341 6.15807 8.36436 6.42059C8.24288 6.48849 8.12139 6.55638 8.00306 6.62517C7.64581 6.82748 7.31196 7.01936 6.95239 7.19374C6.94429 7.19827 6.94024 7.20053 6.93214 7.20506C6.60413 7.38837 6.57234 7.64528 6.58366 7.84621C6.58414 7.85658 6.58551 7.86378 6.58598 7.87414C6.65919 8.49486 6.83513 9.11396 7.15518 9.88635C7.74122 11.2488 8.44427 12.3784 9.3037 13.3409C9.40988 13.4596 9.52595 13.5675 9.63976 13.6713C9.74273 13.7652 9.83713 13.8533 9.918 13.9409C9.92884 13.9508 9.93652 13.9598 9.94736 13.9697C10.0341 14.0488 10.1248 14.1017 10.2258 14.1303C10.4751 14.2008 10.6776 14.0877 10.7433 14.0483L12.1809 13.2449C12.3995 13.1227 12.6076 13.0861 12.7875 13.137C13.0085 13.1996 13.1491 13.3894 13.2319 13.5424L14.5264 15.8587C14.8432 16.4256 14.5287 16.7661 14.2052 16.9575C14.0406 17.0575 13.8723 17.1463 13.695 17.2427C13.4263 17.3849 13.1487 17.5347 12.8829 17.7152C12.4384 17.9848 11.9861 18.0409 11.459 17.8918C11.4085 17.8775 11.3558 17.8591 11.3062 17.8417C10.3424 17.5008 9.54147 16.8616 8.94855 16.3427C7.33458 14.9144 6.06451 13.1743 5.1664 11.1679Z" fill="white"/>
<path d="M12.1451 5.33601C11.9434 5.24145 11.7044 5.32721 11.6107 5.5257C11.5162 5.72735 11.6019 5.96639 11.8004 6.06006C12.6264 6.45404 13.2994 7.08766 13.7529 7.89441C14.2032 8.70026 14.3894 9.60861 14.2921 10.5186C14.2701 10.7169 14.3967 10.8959 14.5829 10.9486C14.605 10.9549 14.628 10.9579 14.651 10.961C14.8723 10.9862 15.0715 10.8244 15.0925 10.6053C15.2092 9.5304 14.9884 8.45542 14.4566 7.50378C13.9194 6.5472 13.1218 5.7999 12.1451 5.33601Z" fill="white"/>
<path d="M17.4296 11.611C17.4517 11.6173 17.4747 11.6203 17.4976 11.6234C17.7189 11.6486 17.9181 11.4868 17.9392 11.2677C18.1325 9.48835 17.7676 7.71804 16.8873 6.14278C16.0037 4.56662 14.6872 3.32815 13.0704 2.56038C12.8687 2.46582 12.6297 2.55158 12.536 2.75007C12.4414 2.95172 12.5272 3.19076 12.7257 3.28443C14.1887 3.98139 15.3847 5.10392 16.1835 6.5334C16.9824 7.96288 17.3118 9.56972 17.1388 11.181C17.1167 11.3793 17.2434 11.5583 17.4296 11.611Z" fill="white"/>
</svg>
