<svg width="12" height="18" viewBox="0 0 12 18" fill="none" xmlns="http://www.w3.org/2000/svg">
<path d="M11.162 14.8872L4.61549 8.78257L11.162 2.6779C11.3183 2.53224 11.4422 2.35931 11.5267 2.16899C11.6112 1.97867 11.6548 1.77468 11.6548 1.56868C11.6548 1.36268 11.6112 1.15869 11.5267 0.968373C11.4422 0.778052 11.3183 0.605122 11.162 0.459456C11.0058 0.313791 10.8204 0.198243 10.6163 0.119409C10.4122 0.0405754 10.1934 -1.53483e-09 9.97253 0C9.75161 1.53484e-09 9.53286 0.0405754 9.32876 0.119409C9.12467 0.198243 8.93922 0.313791 8.78301 0.459456L1.0385 7.68121C0.380475 8.29483 0.380475 9.28605 1.0385 9.89966L8.78301 17.1214C8.9391 17.2673 9.12451 17.383 9.32863 17.4619C9.53274 17.5409 9.75155 17.5815 9.97253 17.5815C10.1935 17.5815 10.4123 17.5409 10.6164 17.4619C10.8205 17.383 11.0059 17.2673 11.162 17.1214C11.8032 16.5078 11.8201 15.5009 11.162 14.8872Z" fill="#E9C8AE"/>
</svg>
