<svg width="56" height="56" viewBox="0 0 56 56" fill="none" xmlns="http://www.w3.org/2000/svg">
<g clip-path="url(#clip0)">
<path d="M49.9333 28H37.0243C37.3429 25.736 36.555 23.4564 34.9066 21.8718C33.852 20.9832 32.0391 20.202 29.2132 21.113C28.4835 18.5819 25.5956 16.8 21.9333 16.8C18.8052 16.7626 15.971 18.6371 14.7811 21.53C13.8811 20.8638 12.7864 20.5133 11.6667 20.5334C7.39922 20.5334 5.36667 22.848 5.15475 28H5.13333C3.97396 27.9959 2.93262 28.7091 2.51791 29.7915C2.10319 30.8743 2.40124 32.1007 3.26667 32.8722V39.2C3.17826 44.7257 6.52468 49.7278 11.6667 51.7544V55.0667C11.6667 55.5821 12.0846 56 12.6 56H16.3333C16.8488 56 17.2667 55.5821 17.2667 55.0667V53.1153C17.876 53.1681 18.4967 53.2 19.1333 53.2H35.9333C36.5695 53.2 37.1902 53.1681 37.8 53.1153V55.0667C37.8 55.5821 38.2179 56 38.7333 56H42.4667C42.9821 56 43.4 55.5821 43.4 55.0667V51.7544C48.5415 49.7278 51.888 44.7257 51.8 39.2V32.8722C52.6654 32.1007 52.963 30.8743 52.5483 29.7915C52.1336 28.7091 51.0927 27.9959 49.9333 28ZM11.6667 22.4C13.1469 22.4 13.8496 23.1028 14.7401 23.9932C15.0067 24.2598 15.4082 24.3401 15.7568 24.1956C16.1059 24.0511 16.3333 23.7107 16.3333 23.3334C16.3333 21.1258 18.6329 18.6667 21.9333 18.6667C24.6855 18.6667 27.5333 20.0667 27.5333 22.4C27.5333 22.7158 27.6928 23.0098 27.9576 23.182C28.2224 23.3543 28.556 23.3807 28.8445 23.2531C30.2809 22.6156 32.2893 22.1079 33.708 23.3005C34.9207 24.5419 35.4612 26.291 35.1595 28H7.0196C7.25111 22.8507 9.43314 22.4 11.6667 22.4ZM5.13333 29.8667H49.9333C50.4488 29.8667 50.8667 30.2846 50.8667 30.8C50.8667 31.3154 50.4488 31.7334 49.9333 31.7334H5.13333C4.61791 31.7334 4.2 31.3154 4.2 30.8C4.2 30.2846 4.61791 29.8667 5.13333 29.8667ZM15.4 54.1334H13.5333V52.4162C14.1472 52.5966 14.7702 52.7452 15.4 52.8605V54.1334ZM41.5333 54.1334H39.6667V52.8605C40.296 52.7452 40.919 52.5966 41.5333 52.4162V54.1334ZM49.9333 39.2C49.9333 45.2398 45.6044 51.3334 35.9333 51.3334H19.1333C9.46185 51.3334 5.13333 45.2398 5.13333 39.2V33.6H49.9333V39.2Z" fill="#E6C0A2"/>
<path d="M50.8667 7.86224V4.66667C50.8667 4.15124 50.4488 3.73333 49.9333 3.73333H48.0667V0.933333C48.0667 0.417904 47.6488 0 47.1333 0H43.4C42.8846 0 42.4667 0.417904 42.4667 0.933333V3.73333H40.6C40.0846 3.73333 39.6667 4.15124 39.6667 4.66667V7.86224C37.9677 8.60371 36.8689 10.2799 36.8667 12.1333V13.0667C36.8667 13.5821 37.2846 14 37.8 14H52.7333C53.2488 14 53.6667 13.5821 53.6667 13.0667V12.1333C53.6639 10.2799 52.5652 8.60371 50.8667 7.86224ZM44.3333 1.86667H46.2V3.73333H44.3333V1.86667ZM41.5333 5.6H49V7.46667H41.5333V5.6ZM38.7333 12.1333C38.7333 10.587 39.9866 9.33333 41.5333 9.33333H49C50.5463 9.33333 51.8 10.587 51.8 12.1333H38.7333Z" fill="#E6C0A2"/>
<path d="M37.8 21.4667C38.3154 21.4667 38.7333 21.0488 38.7333 20.5333V16.8C38.7333 16.2846 38.3154 15.8667 37.8 15.8667C37.2846 15.8667 36.8667 16.2846 36.8667 16.8V20.5333C36.8667 21.0488 37.2846 21.4667 37.8 21.4667Z" fill="#E6C0A2"/>
<path d="M41.5333 18.6667C42.0488 18.6667 42.4667 18.2488 42.4667 17.7333V16.8C42.4667 16.2846 42.0488 15.8667 41.5333 15.8667C41.0179 15.8667 40.6 16.2846 40.6 16.8V17.7333C40.6 18.2488 41.0179 18.6667 41.5333 18.6667Z" fill="#E6C0A2"/>
<path d="M45.2667 21.4667C45.7821 21.4667 46.2 21.0488 46.2 20.5333V16.8C46.2 16.2846 45.7821 15.8667 45.2667 15.8667C44.7512 15.8667 44.3333 16.2846 44.3333 16.8V20.5333C44.3333 21.0488 44.7512 21.4667 45.2667 21.4667Z" fill="#E6C0A2"/>
<path d="M49 18.6667C49.5154 18.6667 49.9333 18.2488 49.9333 17.7333V16.8C49.9333 16.2846 49.5154 15.8667 49 15.8667C48.4846 15.8667 48.0667 16.2846 48.0667 16.8V17.7333C48.0667 18.2488 48.4846 18.6667 49 18.6667Z" fill="#E6C0A2"/>
<path d="M40.6 22.4C40.6 22.9154 41.0179 23.3333 41.5333 23.3333C42.0488 23.3333 42.4667 22.9154 42.4667 22.4V21.4667C42.4667 20.9512 42.0488 20.5333 41.5333 20.5333C41.0179 20.5333 40.6 20.9512 40.6 21.4667V22.4Z" fill="#E6C0A2"/>
<path d="M48.0667 22.4C48.0667 22.9154 48.4846 23.3333 49 23.3333C49.5154 23.3333 49.9333 22.9154 49.9333 22.4V21.4667C49.9333 20.9512 49.5154 20.5333 49 20.5333C48.4846 20.5333 48.0667 20.9512 48.0667 21.4667V22.4Z" fill="#E6C0A2"/>
<path d="M44.3333 25.2C44.3333 25.7154 44.7512 26.1333 45.2667 26.1333C45.7821 26.1333 46.2 25.7154 46.2 25.2V24.2667C46.2 23.7512 45.7821 23.3333 45.2667 23.3333C44.7512 23.3333 44.3333 23.7512 44.3333 24.2667V25.2Z" fill="#E6C0A2"/>
<path d="M52.7333 23.3333C52.2179 23.3333 51.8 23.7512 51.8 24.2667V25.2C51.8 25.7154 52.2179 26.1333 52.7333 26.1333C53.2488 26.1333 53.6667 25.7154 53.6667 25.2V24.2667C53.6667 23.7512 53.2488 23.3333 52.7333 23.3333Z" fill="#E6C0A2"/>
<path d="M52.7333 15.8667C52.2179 15.8667 51.8 16.2846 51.8 16.8V20.5333C51.8 21.0488 52.2179 21.4667 52.7333 21.4667C53.2488 21.4667 53.6667 21.0488 53.6667 20.5333V16.8C53.6667 16.2846 53.2488 15.8667 52.7333 15.8667Z" fill="#E6C0A2"/>
<path d="M41.5333 47.6C41.6454 47.5995 41.7566 47.5795 41.8619 47.5412C50.0135 44.4837 48.0589 36.2564 48.0384 36.173C47.9104 35.6768 47.4054 35.3764 46.9082 35.5013C46.4105 35.6257 46.1066 36.1284 46.2278 36.6269C46.2962 36.8986 47.8146 43.3143 41.2047 45.7921C40.7809 45.9503 40.5316 46.3887 40.6123 46.8335C40.6934 47.2783 41.0812 47.6014 41.5333 47.6Z" fill="#E6C0A2"/>
</g>
<defs>
<clipPath id="clip0">
<rect width="56" height="56" fill="white"/>
</clipPath>
</defs>
</svg>
