<svg width="37" height="37" viewBox="0 0 37 37" fill="none" xmlns="http://www.w3.org/2000/svg">
<g clip-path="url(#clip0)">
<path d="M32.9917 18.5H24.4625C24.673 17.0041 24.1524 15.4979 23.0633 14.451C22.3665 13.8638 21.1687 13.3477 19.3015 13.9496C18.8195 12.2773 16.9114 11.1 14.4917 11.1C12.4249 11.0753 10.5523 12.3137 9.7661 14.2252C9.17141 13.7849 8.44815 13.5534 7.70833 13.5666C4.88877 13.5666 3.54583 15.096 3.40582 18.5H3.39167C2.62565 18.4973 1.93762 18.9685 1.66361 19.6836C1.38961 20.3991 1.58653 21.2093 2.15833 21.7191V25.9C2.09992 29.5509 4.31094 32.8558 7.70833 34.1949V36.3833C7.70833 36.7239 7.98445 37 8.325 37H10.7917C11.1322 37 11.4083 36.7239 11.4083 36.3833V35.094C11.8109 35.1289 12.221 35.15 12.6417 35.15H23.7417C24.162 35.15 24.5721 35.1289 24.975 35.094V36.3833C24.975 36.7239 25.2511 37 25.5917 37H28.0583C28.3989 37 28.675 36.7239 28.675 36.3833V34.1949C32.0721 32.8558 34.2831 29.5509 34.225 25.9V21.7191C34.7968 21.2093 34.9934 20.3991 34.7194 19.6836C34.4454 18.9685 33.7577 18.4973 32.9917 18.5ZM7.70833 14.8C8.68633 14.8 9.15063 15.2643 9.739 15.8526C9.91514 16.0288 10.1804 16.0818 10.4108 15.9863C10.6414 15.8909 10.7917 15.666 10.7917 15.4166C10.7917 13.9581 12.311 12.3333 14.4917 12.3333C16.31 12.3333 18.1917 13.2583 18.1917 14.8C18.1917 15.0086 18.2971 15.2029 18.472 15.3167C18.6469 15.4305 18.8673 15.448 19.0579 15.3636C20.007 14.9424 21.334 14.607 22.2714 15.395C23.0726 16.2152 23.4297 17.3708 23.2304 18.5H4.63795C4.79091 15.0978 6.23261 14.8 7.70833 14.8ZM3.39167 19.7333H32.9917C33.3322 19.7333 33.6083 20.0094 33.6083 20.35C33.6083 20.6905 33.3322 20.9666 32.9917 20.9666H3.39167C3.05111 20.9666 2.775 20.6905 2.775 20.35C2.775 20.0094 3.05111 19.7333 3.39167 19.7333ZM10.175 35.7666H8.94167V34.6321C9.34726 34.7513 9.75887 34.8495 10.175 34.9257V35.7666ZM27.4417 35.7666H26.2083V34.9257C26.6242 34.8495 27.0358 34.7513 27.4417 34.6321V35.7666ZM32.9917 25.9C32.9917 29.8905 30.1315 33.9166 23.7417 33.9166H12.6417C6.25158 33.9166 3.39167 29.8905 3.39167 25.9V22.2H32.9917V25.9Z" fill="#E6C0A2"/>
<path d="M33.6083 5.19469V3.08333C33.6083 2.74278 33.3322 2.46667 32.9917 2.46667H31.7583V0.616667C31.7583 0.276115 31.4822 0 31.1417 0H28.675C28.3345 0 28.0583 0.276115 28.0583 0.616667V2.46667H26.825C26.4845 2.46667 26.2083 2.74278 26.2083 3.08333V5.19469C25.0858 5.68459 24.3598 6.79207 24.3583 8.01667V8.63333C24.3583 8.97389 24.6345 9.25 24.975 9.25H34.8417C35.1822 9.25 35.4583 8.97389 35.4583 8.63333V8.01667C35.4565 6.79207 34.7306 5.68459 33.6083 5.19469ZM29.2917 1.23333H30.525V2.46667H29.2917V1.23333ZM27.4417 3.7H32.375V4.93333H27.4417V3.7ZM25.5917 8.01667C25.5917 6.99501 26.4197 6.16667 27.4417 6.16667H32.375C33.3967 6.16667 34.225 6.99501 34.225 8.01667H25.5917Z" fill="#E6C0A2"/>
<path d="M24.975 14.1834C25.3156 14.1834 25.5917 13.9073 25.5917 13.5667V11.1001C25.5917 10.7595 25.3156 10.4834 24.975 10.4834C24.6345 10.4834 24.3583 10.7595 24.3583 11.1001V13.5667C24.3583 13.9073 24.6345 14.1834 24.975 14.1834Z" fill="#E6C0A2"/>
<path d="M27.4417 12.3334C27.7822 12.3334 28.0583 12.0573 28.0583 11.7167V11.1001C28.0583 10.7595 27.7822 10.4834 27.4417 10.4834C27.1011 10.4834 26.825 10.7595 26.825 11.1001V11.7167C26.825 12.0573 27.1011 12.3334 27.4417 12.3334Z" fill="#E6C0A2"/>
<path d="M29.9083 14.1834C30.2489 14.1834 30.525 13.9073 30.525 13.5667V11.1001C30.525 10.7595 30.2489 10.4834 29.9083 10.4834C29.5678 10.4834 29.2917 10.7595 29.2917 11.1001V13.5667C29.2917 13.9073 29.5678 14.1834 29.9083 14.1834Z" fill="#E6C0A2"/>
<path d="M32.375 12.3334C32.7156 12.3334 32.9917 12.0573 32.9917 11.7167V11.1001C32.9917 10.7595 32.7156 10.4834 32.375 10.4834C32.0344 10.4834 31.7583 10.7595 31.7583 11.1001V11.7167C31.7583 12.0573 32.0344 12.3334 32.375 12.3334Z" fill="#E6C0A2"/>
<path d="M26.825 14.8C26.825 15.1405 27.1011 15.4166 27.4417 15.4166C27.7822 15.4166 28.0583 15.1405 28.0583 14.8V14.1833C28.0583 13.8428 27.7822 13.5667 27.4417 13.5667C27.1011 13.5667 26.825 13.8428 26.825 14.1833V14.8Z" fill="#E6C0A2"/>
<path d="M31.7583 14.8C31.7583 15.1405 32.0344 15.4166 32.375 15.4166C32.7156 15.4166 32.9917 15.1405 32.9917 14.8V14.1833C32.9917 13.8428 32.7156 13.5667 32.375 13.5667C32.0344 13.5667 31.7583 13.8428 31.7583 14.1833V14.8Z" fill="#E6C0A2"/>
<path d="M29.2917 16.6501C29.2917 16.9906 29.5678 17.2667 29.9083 17.2667C30.2489 17.2667 30.525 16.9906 30.525 16.6501V16.0334C30.525 15.6929 30.2489 15.4167 29.9083 15.4167C29.5678 15.4167 29.2917 15.6929 29.2917 16.0334V16.6501Z" fill="#E6C0A2"/>
<path d="M34.8417 15.4167C34.5011 15.4167 34.225 15.6929 34.225 16.0334V16.6501C34.225 16.9906 34.5011 17.2667 34.8417 17.2667C35.1822 17.2667 35.4583 16.9906 35.4583 16.6501V16.0334C35.4583 15.6929 35.1822 15.4167 34.8417 15.4167Z" fill="#E6C0A2"/>
<path d="M34.8417 10.4834C34.5011 10.4834 34.225 10.7595 34.225 11.1001V13.5667C34.225 13.9073 34.5011 14.1834 34.8417 14.1834C35.1822 14.1834 35.4583 13.9073 35.4583 13.5667V11.1001C35.4583 10.7595 35.1822 10.4834 34.8417 10.4834Z" fill="#E6C0A2"/>
<path d="M27.4417 31.45C27.5157 31.4497 27.5892 31.4364 27.6588 31.4111C33.0446 29.391 31.7532 23.9551 31.7397 23.9C31.655 23.5721 31.3214 23.3737 30.9929 23.4562C30.6641 23.5384 30.4633 23.8705 30.5434 24.1999C30.5885 24.3794 31.5918 28.6184 27.2246 30.2555C26.9445 30.36 26.7798 30.6496 26.8331 30.9435C26.8867 31.2374 27.143 31.4509 27.4417 31.45Z" fill="#E6C0A2"/>
</g>
<defs>
<clipPath id="clip0">
<rect width="37" height="37" fill="white"/>
</clipPath>
</defs>
</svg>
