<svg width="57" height="57" viewBox="0 0 57 57" fill="none" xmlns="http://www.w3.org/2000/svg">
<path d="M53.2 13.2878H30.2387L36.955 2.45788C37.24 1.98285 37.145 1.41286 36.67 1.12787C36.195 0.84287 35.625 0.93783 35.34 1.41286L28.4865 12.4641L20.71 1.31779C20.425 0.93783 19.855 0.842756 19.38 1.12775C19 1.41275 18.9049 1.98274 19.1899 2.45777L26.7457 13.2877H3.80002C1.70998 13.2878 0 14.9978 0 17.0879V49.3878C0 51.4779 1.70998 53.1879 3.80002 53.1879H4.74997V55.0879C4.74997 55.6579 5.12993 56.0378 5.69992 56.0378C6.26991 56.0378 6.64987 55.6579 6.64987 55.0879V53.1879H50.3498V55.0879C50.3498 55.6579 50.7297 56.0378 51.2997 56.0378C51.8697 56.0378 52.2497 55.6579 52.2497 55.0879V53.1879H53.1996C55.2897 53.1879 56.9997 51.4779 56.9997 49.3878V17.0879C57 14.9978 55.2899 13.2878 53.2 13.2878ZM55.1 49.3878C55.1 50.4329 54.245 51.2879 53.2 51.2879H3.80002C2.755 51.2879 1.90001 50.4329 1.90001 49.3878V17.0879C1.90001 16.0428 2.755 15.1879 3.80002 15.1879H53.2C54.245 15.1879 55.1 16.0428 55.1 17.0879V49.3878Z" fill="#E6C0A2"/>
<path d="M36.1 17.0879H9.49993C6.36497 17.0879 3.7999 19.6528 3.7999 22.7879V43.6879C3.7999 46.8229 6.36486 49.3879 9.49993 49.3879H36.0999C39.2348 49.3879 41.7999 46.823 41.7999 43.6879V22.7878C41.7999 19.6528 39.2349 17.0879 36.1 17.0879ZM39.9 43.6878C39.9 45.7778 38.19 47.4878 36.1 47.4878H9.49993C7.40988 47.4878 5.69991 45.7778 5.69991 43.6878V22.7878C5.69991 20.6977 7.40988 18.9878 9.49993 18.9878H36.0999C38.1899 18.9878 39.8999 20.6977 39.8999 22.7878V43.6878H39.9Z" fill="#E6C0A2"/>
<path d="M52.2499 21.8378H44.6499C44.0799 21.8378 43.6999 22.2178 43.6999 22.7878C43.6999 23.3578 44.0799 23.7377 44.6499 23.7377H52.2499C52.8199 23.7377 53.1999 23.3578 53.1999 22.7878C53.1999 22.2178 52.8199 21.8378 52.2499 21.8378Z" fill="#E6C0A2"/>
<path d="M52.2499 25.6379H44.6499C44.0799 25.6379 43.6999 26.0178 43.6999 26.5878C43.6999 27.1578 44.0799 27.5378 44.6499 27.5378H52.2499C52.8199 27.5378 53.1999 27.1578 53.1999 26.5878C53.1999 26.0178 52.8199 25.6379 52.2499 25.6379Z" fill="#E6C0A2"/>
<path d="M52.2499 29.4378H44.6499C44.0799 29.4378 43.6999 29.8177 43.6999 30.3877C43.6999 30.9577 44.0799 31.3377 44.6499 31.3377H52.2499C52.8199 31.3377 53.1999 30.9577 53.1999 30.3877C53.1999 29.8177 52.8199 29.4378 52.2499 29.4378Z" fill="#E6C0A2"/>
<path d="M52.2499 33.2378H44.6499C44.0799 33.2378 43.6999 33.6178 43.6999 34.1877V41.7878C43.6999 42.3578 44.0799 42.7377 44.6499 42.7377H52.2499C52.8199 42.7377 53.1999 42.3578 53.1999 41.7878V34.1877C53.2 33.6179 52.8199 33.2378 52.2499 33.2378ZM51.3 40.8378H45.5999V35.1378H51.3V40.8378Z" fill="#E6C0A2"/>
<path d="M11.6849 21.1728L7.88503 24.9728C7.50508 25.3528 7.50508 25.9228 7.88503 26.3028C8.07507 26.4929 8.26499 26.5878 8.54999 26.5878C8.83498 26.5878 9.02502 26.4929 9.21494 26.3028L13.015 22.5028C13.3949 22.1228 13.3949 21.5529 13.015 21.1728C12.635 20.7928 12.065 20.7928 11.6849 21.1728Z" fill="#E6C0A2"/>
<path d="M8.83498 28.7728L7.88503 29.7228C7.50508 30.1027 7.50508 30.6727 7.88503 31.0528C8.07507 31.2428 8.26499 31.3378 8.54999 31.3378C8.83498 31.3378 9.02502 31.2428 9.21494 31.0528L10.1649 30.1028C10.5448 29.7229 10.5448 29.1529 10.1649 28.7728C9.78493 28.3929 9.21494 28.3929 8.83498 28.7728Z" fill="#E6C0A2"/>
<path d="M17.385 20.2228L14.535 23.0728C14.1551 23.4528 14.1551 24.0228 14.535 24.4028C14.7251 24.5929 14.915 24.6878 15.2 24.6878C15.485 24.6878 15.675 24.5929 15.8649 24.4028L18.7149 21.5529C19.0949 21.1729 19.0949 20.6029 18.7149 20.2228C18.3349 19.8428 17.7649 19.8429 17.385 20.2228Z" fill="#E6C0A2"/>
<path d="M12.35 25.6379C11.78 25.6379 11.4001 26.0178 11.4001 26.5878C11.4001 27.1578 11.78 27.5378 12.35 27.5378C12.92 27.5378 13.3 27.1578 13.3 26.5878C13.3 26.0178 12.92 25.6379 12.35 25.6379Z" fill="#E6C0A2"/>
</svg>
