<svg width="37" height="37" viewBox="0 0 37 37" fill="none" xmlns="http://www.w3.org/2000/svg">
<path d="M34.5333 8.62546H19.6286L23.9883 1.59548C24.1733 1.28713 24.1117 0.917133 23.8033 0.732136C23.495 0.547138 23.125 0.608779 22.94 0.917133L18.4912 8.09074L13.4433 0.855418C13.2583 0.608779 12.8883 0.547065 12.58 0.732062C12.3333 0.91706 12.2716 1.28705 12.4566 1.59541L17.3612 8.62538H2.46668C1.10998 8.62546 0 9.73544 0 11.0921V32.0588C0 33.4155 1.10998 34.5255 2.46668 34.5255H3.08331V35.7588C3.08331 36.1288 3.32995 36.3754 3.69995 36.3754C4.06994 36.3754 4.31658 36.1288 4.31658 35.7588V34.5255H32.6832V35.7588C32.6832 36.1288 32.9298 36.3754 33.2998 36.3754C33.6698 36.3754 33.9165 36.1288 33.9165 35.7588V34.5255H34.5331C35.8898 34.5255 36.9998 33.4155 36.9998 32.0588V11.0921C37 9.73544 35.8899 8.62546 34.5333 8.62546ZM35.7667 32.0588C35.7667 32.7371 35.2117 33.2921 34.5333 33.2921H2.46668C1.78833 33.2921 1.23334 32.7371 1.23334 32.0588V11.0921C1.23334 10.4138 1.78833 9.8588 2.46668 9.8588H34.5333C35.2117 9.8588 35.7667 10.4138 35.7667 11.0921V32.0588Z" fill="#E6C0A2"/>
<path d="M23.4333 11.092H6.16664C4.13166 11.092 2.46661 12.757 2.46661 14.7921V28.3587C2.46661 30.3937 4.13159 32.0588 6.16664 32.0588H23.4333C25.4682 32.0588 27.1333 30.3938 27.1333 28.3587V14.792C27.1333 12.757 25.4683 11.092 23.4333 11.092ZM25.9 28.3587C25.9 29.7154 24.79 30.8253 23.4333 30.8253H6.16664C4.80994 30.8253 3.69995 29.7154 3.69995 28.3587V14.792C3.69995 13.4353 4.80994 12.3253 6.16664 12.3253H23.4333C24.79 12.3253 25.8999 13.4353 25.8999 14.792V28.3587H25.9Z" fill="#E6C0A2"/>
<path d="M33.9166 14.1755H28.9832C28.6132 14.1755 28.3666 14.4222 28.3666 14.7922C28.3666 15.1622 28.6132 15.4088 28.9832 15.4088H33.9166C34.2866 15.4088 34.5332 15.1622 34.5332 14.7922C34.5332 14.4222 34.2866 14.1755 33.9166 14.1755Z" fill="#E6C0A2"/>
<path d="M33.9166 16.6421H28.9832C28.6132 16.6421 28.3666 16.8887 28.3666 17.2587C28.3666 17.6287 28.6132 17.8754 28.9832 17.8754H33.9166C34.2866 17.8754 34.5332 17.6287 34.5332 17.2587C34.5332 16.8887 34.2866 16.6421 33.9166 16.6421Z" fill="#E6C0A2"/>
<path d="M33.9166 19.1086H28.9832C28.6132 19.1086 28.3666 19.3553 28.3666 19.7253C28.3666 20.0953 28.6132 20.3419 28.9832 20.3419H33.9166C34.2866 20.3419 34.5332 20.0953 34.5332 19.7253C34.5332 19.3553 34.2866 19.1086 33.9166 19.1086Z" fill="#E6C0A2"/>
<path d="M33.9166 21.5754H28.9832C28.6132 21.5754 28.3666 21.8221 28.3666 22.1921V27.1254C28.3666 27.4954 28.6132 27.7421 28.9832 27.7421H33.9166C34.2866 27.7421 34.5332 27.4954 34.5332 27.1254V22.1921C34.5333 21.8222 34.2866 21.5754 33.9166 21.5754ZM33.3 26.5088H29.5999V22.8088H33.3V26.5088Z" fill="#E6C0A2"/>
<path d="M7.58497 13.7438L5.11836 16.2105C4.87172 16.4571 4.87172 16.8271 5.11836 17.0738C5.24172 17.1972 5.365 17.2588 5.55 17.2588C5.73499 17.2588 5.85835 17.1972 5.98163 17.0738L8.44831 14.6072C8.69495 14.3605 8.69495 13.9905 8.44831 13.7438C8.20167 13.4972 7.83168 13.4972 7.58497 13.7438Z" fill="#E6C0A2"/>
<path d="M5.73499 18.6772L5.11836 19.2938C4.87172 19.5404 4.87172 19.9104 5.11836 20.1571C5.24172 20.2805 5.365 20.3421 5.55 20.3421C5.73499 20.3421 5.85835 20.2805 5.98163 20.1571L6.59827 19.5405C6.8449 19.2939 6.8449 18.9239 6.59827 18.6772C6.35163 18.4305 5.98163 18.4305 5.73499 18.6772Z" fill="#E6C0A2"/>
<path d="M11.285 13.1271L9.43501 14.9771C9.18837 15.2238 9.18837 15.5938 9.43501 15.8405C9.55837 15.9638 9.68165 16.0255 9.86665 16.0255C10.0516 16.0255 10.175 15.9638 10.2983 15.8405L12.1483 13.9905C12.3949 13.7439 12.3949 13.3739 12.1483 13.1271C11.9016 12.8804 11.5316 12.8805 11.285 13.1271Z" fill="#E6C0A2"/>
<path d="M8.01669 16.6421C7.64669 16.6421 7.40005 16.8887 7.40005 17.2587C7.40005 17.6287 7.64669 17.8754 8.01669 17.8754C8.38668 17.8754 8.63332 17.6287 8.63332 17.2587C8.63332 16.8887 8.38668 16.6421 8.01669 16.6421Z" fill="#E6C0A2"/>
</svg>
