<svg width="38" height="38" viewBox="0 0 38 38" fill="none" xmlns="http://www.w3.org/2000/svg">
<path fill-rule="evenodd" clip-rule="evenodd" d="M18.8077 0C8.42049 0 0 8.42049 0 18.8077C0 29.1949 8.42049 37.6154 18.8077 37.6154C29.1949 37.6154 37.6154 29.1949 37.6154 18.8077C37.6154 8.42049 29.1949 0 18.8077 0ZM20.3391 24.7448C20.1536 24.9403 19.7915 24.9798 19.7915 24.9798H18.5925C18.5925 24.9798 15.9472 25.1358 13.6168 22.7549C11.0754 20.1573 8.83142 15.0035 8.83142 15.0035C8.83142 15.0035 8.7019 14.6654 8.84221 14.5026C9.00019 14.3187 9.43094 14.3071 9.43094 14.3071L12.2971 14.2888C12.2971 14.2888 12.5669 14.3322 12.7602 14.4718C12.9201 14.5874 13.0094 14.8022 13.0094 14.8022C13.0094 14.8022 13.4725 15.9522 14.0858 16.9924C15.2839 19.0237 15.8412 19.4677 16.2474 19.25C16.8401 18.9331 16.6625 16.3789 16.6625 16.3789C16.6625 16.3789 16.6733 15.4523 16.3642 15.0391C16.1248 14.7193 15.6734 14.6259 15.4742 14.5999C15.3123 14.5787 15.5772 14.2108 15.9207 14.0461C16.4368 13.7986 17.3473 13.7841 18.4237 13.7947C19.2627 13.8034 19.504 13.8544 19.8318 13.9324C20.5924 14.1126 20.5686 14.69 20.5174 15.9361C20.5021 16.3088 20.4843 16.7413 20.4843 17.2409C20.4843 17.3531 20.4809 17.4728 20.4775 17.5959C20.4597 18.2343 20.4394 18.9654 20.8679 19.2375C21.0877 19.3762 21.6244 19.2577 22.9677 17.0194C23.6045 15.958 24.0814 14.7107 24.0814 14.7107C24.0814 14.7107 24.1864 14.4882 24.3483 14.3928C24.5141 14.2956 24.7378 14.3254 24.7378 14.3254L27.7541 14.3071C27.7541 14.3071 28.6607 14.2002 28.8069 14.6028C28.961 15.0237 28.4684 16.008 27.236 17.6204C26.0669 19.1502 25.498 19.7135 25.5503 20.2116C25.5884 20.5756 25.9582 20.9048 26.6679 21.551C28.1493 22.9011 28.5464 23.6114 28.6418 23.7821C28.6497 23.7962 28.6555 23.8066 28.6597 23.8134C29.324 24.8951 27.9228 24.9798 27.9228 24.9798L25.2431 25.0164C25.2431 25.0164 24.6682 25.1281 23.9107 24.6177C23.5139 24.3505 23.1261 23.9141 22.7568 23.4985C22.1928 22.8638 21.6718 22.2774 21.2271 22.4159C20.4804 22.649 20.5029 24.2276 20.5029 24.2276C20.5029 24.2276 20.5088 24.5657 20.3391 24.7448Z" fill="#E6C0A2"/>
</svg>
