<svg width="39" height="36" viewBox="0 0 39 36" fill="none" xmlns="http://www.w3.org/2000/svg">
<g clip-path="url(#clip0)">
<path d="M22.5469 12.3472H3.65625C2.84847 12.3481 2.07404 12.644 1.50285 13.1701C0.931662 13.6961 0.610343 14.4094 0.609375 15.1533V32.5514C0.610343 33.2954 0.931662 34.0086 1.50285 34.5347C2.07404 35.0608 2.84847 35.3567 3.65625 35.3576H22.5469C23.3547 35.3567 24.1291 35.0608 24.7003 34.5347C25.2715 34.0086 25.5928 33.2954 25.5938 32.5514V15.1533C25.5928 14.4094 25.2715 13.6961 24.7003 13.1701C24.1291 12.644 23.3547 12.3481 22.5469 12.3472ZM24.375 32.5514C24.375 32.998 24.1824 33.4262 23.8396 33.742C23.4967 34.0577 23.0317 34.2351 22.5469 34.2351H3.65625C3.1714 34.2351 2.70641 34.0577 2.36357 33.742C2.02073 33.4262 1.82812 32.998 1.82812 32.5514V15.1533C1.82812 14.7068 2.02073 14.2785 2.36357 13.9628C2.70641 13.647 3.1714 13.4696 3.65625 13.4696H22.5469C23.0317 13.4696 23.4967 13.647 23.8396 13.9628C24.1824 14.2785 24.375 14.7068 24.375 15.1533V32.5514Z" fill="#E6C0A2"/>
<path d="M19.5 7.85718H19.3854C19.2238 7.85777 19.0691 7.91747 18.9553 8.02315C18.8414 8.12882 18.7779 8.2718 18.7785 8.42065C18.7792 8.5695 18.844 8.71201 18.9587 8.81684C19.0735 8.92167 19.2287 8.98023 19.3903 8.97964H19.5C22.0849 8.98246 24.5631 9.92944 26.3909 11.6128C28.2187 13.2962 29.2469 15.5786 29.25 17.9593C29.25 18.1082 29.3142 18.2509 29.4285 18.3562C29.5428 18.4614 29.6978 18.5205 29.8594 18.5205C30.021 18.5205 30.176 18.4614 30.2903 18.3562C30.4046 18.2509 30.4688 18.1082 30.4688 17.9593C30.4654 15.281 29.3086 12.7133 27.2523 10.8195C25.196 8.92563 22.4081 7.8603 19.5 7.85718Z" fill="#E6C0A2"/>
<path d="M19.5 3.92871C19.3384 3.92871 19.1834 3.98784 19.0691 4.09309C18.9548 4.19834 18.8906 4.34109 18.8906 4.48994C18.8906 4.63879 18.9548 4.78154 19.0691 4.88679C19.1834 4.99204 19.3384 5.05117 19.5 5.05117C23.2159 5.05503 26.7784 6.41625 29.4059 8.83618C32.0334 11.2561 33.5114 14.5372 33.5156 17.9595C33.5156 18.1083 33.5798 18.2511 33.6941 18.3563C33.8084 18.4616 33.9634 18.5207 34.125 18.5207C34.2866 18.5207 34.4416 18.4616 34.5559 18.3563C34.6702 18.2511 34.7344 18.1083 34.7344 17.9595C34.7299 14.2395 33.1234 10.6732 30.2673 8.04281C27.4113 5.41244 23.539 3.93287 19.5 3.92871Z" fill="#E6C0A2"/>
<path d="M19.5 0.561523C19.3384 0.561523 19.1834 0.620653 19.0691 0.725904C18.9548 0.831155 18.8906 0.973906 18.8906 1.12275C18.8906 1.2716 18.9548 1.41435 19.0691 1.5196C19.1834 1.62485 19.3384 1.68398 19.5 1.68398C24.1853 1.68874 28.6772 3.40502 31.9902 6.45626C35.3032 9.50751 37.1667 13.6445 37.1719 17.9596C37.1719 18.1085 37.2361 18.2512 37.3504 18.3565C37.4646 18.4617 37.6196 18.5209 37.7812 18.5209C37.9429 18.5209 38.0979 18.4617 38.2121 18.3565C38.3264 18.2512 38.3906 18.1085 38.3906 17.9596C38.3848 13.347 36.3927 8.92484 32.8513 5.66322C29.3099 2.4016 24.5083 0.566871 19.5 0.561523Z" fill="#E6C0A2"/>
<path d="M9.14062 32.5513H3.65625C3.49463 32.5513 3.33964 32.6104 3.22536 32.7157C3.11108 32.821 3.04688 32.9639 3.04688 33.1128C3.04688 33.2617 3.11108 33.4045 3.22536 33.5098C3.33964 33.6151 3.49463 33.6743 3.65625 33.6743H9.14062C9.30224 33.6743 9.45724 33.6151 9.57152 33.5098C9.6858 33.4045 9.75 33.2617 9.75 33.1128C9.75 32.9639 9.6858 32.821 9.57152 32.7157C9.45724 32.6104 9.30224 32.5513 9.14062 32.5513Z" fill="#E6C0A2"/>
<path d="M11.5781 32.5513H10.9688C10.8071 32.5513 10.6521 32.6104 10.5379 32.7157C10.4236 32.821 10.3594 32.9639 10.3594 33.1128C10.3594 33.2617 10.4236 33.4045 10.5379 33.5098C10.6521 33.6151 10.8071 33.6743 10.9688 33.6743H11.5781C11.7397 33.6743 11.8947 33.6151 12.009 33.5098C12.1233 33.4045 12.1875 33.2617 12.1875 33.1128C12.1875 32.9639 12.1233 32.821 12.009 32.7157C11.8947 32.6104 11.7397 32.5513 11.5781 32.5513Z" fill="#E6C0A2"/>
<path d="M6.70312 26.3778H10.3594C10.521 26.3778 10.676 26.3186 10.7903 26.2134C10.9045 26.1081 10.9688 25.9654 10.9688 25.8165V22.4492C10.9688 22.3003 10.9045 22.1576 10.7903 22.0523C10.676 21.9471 10.521 21.8879 10.3594 21.8879C10.1978 21.8879 10.0428 21.9471 9.92848 22.0523C9.8142 22.1576 9.75 22.3003 9.75 22.4492V25.2553H9.14062V24.1329C9.14062 23.984 9.07642 23.8413 8.96214 23.736C8.84786 23.6308 8.69287 23.5716 8.53125 23.5716C8.36963 23.5716 8.21464 23.6308 8.10036 23.736C7.98608 23.8413 7.92188 23.984 7.92188 24.1329V25.2553H7.3125V22.4492C7.3125 22.3003 7.2483 22.1576 7.13402 22.0523C7.01974 21.9471 6.86474 21.8879 6.70312 21.8879C6.54151 21.8879 6.38651 21.9471 6.27223 22.0523C6.15795 22.1576 6.09375 22.3003 6.09375 22.4492V25.8165C6.09375 25.9654 6.15795 26.1081 6.27223 26.2134C6.38651 26.3186 6.54151 26.3778 6.70312 26.3778Z" fill="#E6C0A2"/>
<path d="M16.4531 21.8879H14.0156C13.854 21.8879 13.699 21.9471 13.5847 22.0523C13.4705 22.1576 13.4062 22.3003 13.4062 22.4492V25.8165C13.4062 25.9654 13.4705 26.1081 13.5847 26.2134C13.699 26.3186 13.854 26.3778 14.0156 26.3778C14.1772 26.3778 14.3322 26.3186 14.4465 26.2134C14.5608 26.1081 14.625 25.9654 14.625 25.8165V24.6941H15.8438C16.0054 24.6941 16.1604 24.635 16.2746 24.5297C16.3889 24.4245 16.4531 24.2817 16.4531 24.1329C16.4531 23.984 16.3889 23.8413 16.2746 23.736C16.1604 23.6308 16.0054 23.5716 15.8438 23.5716H14.625V23.0104H16.4531C16.6147 23.0104 16.7697 22.9513 16.884 22.846C16.9983 22.7408 17.0625 22.598 17.0625 22.4492C17.0625 22.3003 16.9983 22.1576 16.884 22.0523C16.7697 21.9471 16.6147 21.8879 16.4531 21.8879Z" fill="#E6C0A2"/>
<path d="M12.1875 21.8879C12.0259 21.8879 11.8709 21.9471 11.7566 22.0523C11.6423 22.1576 11.5781 22.3003 11.5781 22.4492V25.8165C11.5781 25.9654 11.6423 26.1081 11.7566 26.2134C11.8709 26.3186 12.0259 26.3778 12.1875 26.3778C12.3491 26.3778 12.5041 26.3186 12.6184 26.2134C12.7327 26.1081 12.7969 25.9654 12.7969 25.8165V22.4492C12.7969 22.3003 12.7327 22.1576 12.6184 22.0523C12.5041 21.9471 12.3491 21.8879 12.1875 21.8879Z" fill="#E6C0A2"/>
<path d="M18.2812 21.8879C18.1196 21.8879 17.9646 21.9471 17.8504 22.0523C17.7361 22.1576 17.6719 22.3003 17.6719 22.4492V25.8165C17.6719 25.9654 17.7361 26.1081 17.8504 26.2134C17.9646 26.3186 18.1196 26.3778 18.2812 26.3778C18.4429 26.3778 18.5979 26.3186 18.7121 26.2134C18.8264 26.1081 18.8906 25.9654 18.8906 25.8165V22.4492C18.8906 22.3003 18.8264 22.1576 18.7121 22.0523C18.5979 21.9471 18.4429 21.8879 18.2812 21.8879Z" fill="#E6C0A2"/>
</g>
<defs>
<clipPath id="clip0">
<rect width="39" height="35.9187" fill="white"/>
</clipPath>
</defs>
</svg>
