<svg width="60" height="56" viewBox="0 0 60 56" fill="none" xmlns="http://www.w3.org/2000/svg">
<path d="M34.6417 18.9955H6.37292C5.16412 18.9968 4.00524 19.4521 3.15049 20.2614C2.29573 21.0708 1.81489 22.168 1.81345 23.3126V50.0789C1.81489 51.2235 2.29573 52.3208 3.15049 53.1301C4.00524 53.9394 5.16412 54.3947 6.37292 54.3961H34.6417C35.8505 54.3947 37.0094 53.9394 37.8641 53.1301C38.7189 52.3208 39.1997 51.2235 39.2012 50.0789V23.3126C39.1997 22.168 38.7189 21.0708 37.8641 20.2614C37.0094 19.4521 35.8505 18.9968 34.6417 18.9955ZM37.3774 50.0789C37.3774 50.7659 37.0892 51.4248 36.5761 51.9105C36.0631 52.3963 35.3672 52.6692 34.6417 52.6692H6.37292C5.64738 52.6692 4.95154 52.3963 4.4385 51.9105C3.92546 51.4248 3.63724 50.7659 3.63724 50.0789V23.3126C3.63724 22.6256 3.92546 21.9668 4.4385 21.481C4.95154 20.9952 5.64738 20.7223 6.37292 20.7223H34.6417C35.3672 20.7223 36.0631 20.9952 36.5761 21.481C37.0892 21.9668 37.3774 22.6256 37.3774 23.3126V50.0789Z" fill="#E6C0A2"/>
<path d="M30.0822 12.088H29.9108C29.6689 12.0889 29.4374 12.1808 29.267 12.3433C29.0967 12.5059 29.0016 12.7259 29.0025 12.9549C29.0035 13.1839 29.1005 13.4031 29.2722 13.5644C29.4439 13.7257 29.6762 13.8158 29.9181 13.8149H30.0822C33.9504 13.8192 37.6588 15.2761 40.3941 17.866C43.1293 20.4558 44.668 23.9672 44.6725 27.6298C44.6725 27.8588 44.7686 28.0784 44.9396 28.2403C45.1106 28.4022 45.3426 28.4932 45.5844 28.4932C45.8263 28.4932 46.0582 28.4022 46.2292 28.2403C46.4003 28.0784 46.4963 27.8588 46.4963 27.6298C46.4913 23.5093 44.7603 19.559 41.6831 16.6454C38.606 13.7318 34.4339 12.0928 30.0822 12.088Z" fill="#E6C0A2"/>
<path d="M30.0822 6.04401C29.8404 6.04401 29.6084 6.13497 29.4374 6.2969C29.2664 6.45882 29.1703 6.67844 29.1703 6.90744C29.1703 7.13643 29.2664 7.35605 29.4374 7.51797C29.6084 7.6799 29.8404 7.77087 30.0822 7.77087C35.6428 7.77681 40.9739 9.87099 44.9059 13.594C48.8378 17.3169 51.0495 22.3647 51.0558 27.6298C51.0558 27.8588 51.1519 28.0784 51.3229 28.2403C51.4939 28.4022 51.7259 28.4932 51.9677 28.4932C52.2096 28.4932 52.4415 28.4022 52.6125 28.2403C52.7835 28.0784 52.8796 27.8588 52.8796 27.6298C52.8729 21.9068 50.4688 16.4201 46.1949 12.3734C41.9211 8.32667 36.1264 6.05041 30.0822 6.04401Z" fill="#E6C0A2"/>
<path d="M30.0822 0.863434C29.8404 0.863434 29.6084 0.954402 29.4374 1.11633C29.2664 1.27825 29.1703 1.49787 29.1703 1.72686C29.1703 1.95586 29.2664 2.17548 29.4374 2.3374C29.6084 2.49933 29.8404 2.59029 30.0822 2.59029C37.0935 2.59761 43.8154 5.23804 48.7731 9.93226C53.7308 14.6265 56.5195 20.9911 56.5272 27.6298C56.5272 27.8588 56.6233 28.0784 56.7943 28.2403C56.9653 28.4022 57.1972 28.4932 57.4391 28.4932C57.6809 28.4932 57.9129 28.4022 58.0839 28.2403C58.2549 28.0784 58.351 27.8588 58.351 27.6298C58.3423 20.5334 55.3612 13.7301 50.0617 8.7122C44.7621 3.69432 37.5769 0.87166 30.0822 0.863434Z" fill="#E6C0A2"/>
<path d="M14.58 50.0789H6.37292C6.13108 50.0789 5.89913 50.17 5.72812 50.332C5.5571 50.494 5.46103 50.7137 5.46103 50.9428C5.46103 51.1719 5.5571 51.3916 5.72812 51.5536C5.89913 51.7156 6.13108 51.8066 6.37292 51.8066H14.58C14.8218 51.8066 15.0538 51.7156 15.2248 51.5536C15.3958 51.3916 15.4919 51.1719 15.4919 50.9428C15.4919 50.7137 15.3958 50.494 15.2248 50.332C15.0538 50.17 14.8218 50.0789 14.58 50.0789Z" fill="#E6C0A2"/>
<path d="M18.2276 50.0789H17.3157C17.0738 50.0789 16.8419 50.17 16.6709 50.332C16.4999 50.494 16.4038 50.7137 16.4038 50.9428C16.4038 51.1719 16.4999 51.3916 16.6709 51.5536C16.8419 51.7156 17.0738 51.8066 17.3157 51.8066H18.2276C18.4694 51.8066 18.7014 51.7156 18.8724 51.5536C19.0434 51.3916 19.1395 51.1719 19.1395 50.9428C19.1395 50.7137 19.0434 50.494 18.8724 50.332C18.7014 50.17 18.4694 50.0789 18.2276 50.0789Z" fill="#E6C0A2"/>
<path d="M10.9324 40.5812H16.4038C16.6456 40.5812 16.8776 40.4902 17.0486 40.3283C17.2196 40.1664 17.3157 39.9468 17.3157 39.7178V34.5372C17.3157 34.3082 17.2196 34.0886 17.0486 33.9267C16.8776 33.7647 16.6456 33.6738 16.4038 33.6738C16.1619 33.6738 15.93 33.7647 15.759 33.9267C15.588 34.0886 15.4919 34.3082 15.4919 34.5372V38.8543H14.58V37.1275C14.58 36.8985 14.4839 36.6789 14.3129 36.5169C14.1419 36.355 13.9099 36.2641 13.6681 36.2641C13.4262 36.2641 13.1943 36.355 13.0233 36.5169C12.8523 36.6789 12.7562 36.8985 12.7562 37.1275V38.8543H11.8443V34.5372C11.8443 34.3082 11.7482 34.0886 11.5772 33.9267C11.4062 33.7647 11.1743 33.6738 10.9324 33.6738C10.6906 33.6738 10.4586 33.7647 10.2876 33.9267C10.1166 34.0886 10.0205 34.3082 10.0205 34.5372V39.7178C10.0205 39.9468 10.1166 40.1664 10.2876 40.3283C10.4586 40.4902 10.6906 40.5812 10.9324 40.5812Z" fill="#E6C0A2"/>
<path d="M25.5227 33.6738H21.8752C21.6333 33.6738 21.4014 33.7647 21.2303 33.9267C21.0593 34.0886 20.9633 34.3082 20.9633 34.5372V39.7178C20.9633 39.9468 21.0593 40.1664 21.2303 40.3283C21.4014 40.4902 21.6333 40.5812 21.8752 40.5812C22.117 40.5812 22.3489 40.4902 22.52 40.3283C22.691 40.1664 22.787 39.9468 22.787 39.7178V37.9909H24.6108C24.8527 37.9909 25.0846 37.8999 25.2556 37.738C25.4267 37.5761 25.5227 37.3565 25.5227 37.1275C25.5227 36.8985 25.4267 36.6789 25.2556 36.5169C25.0846 36.355 24.8527 36.2641 24.6108 36.2641H22.787V35.4006H25.5227C25.7646 35.4006 25.9965 35.3097 26.1675 35.1477C26.3386 34.9858 26.4346 34.7662 26.4346 34.5372C26.4346 34.3082 26.3386 34.0886 26.1675 33.9267C25.9965 33.7647 25.7646 33.6738 25.5227 33.6738Z" fill="#E6C0A2"/>
<path d="M19.1395 33.6738C18.8976 33.6738 18.6657 33.7647 18.4947 33.9267C18.3236 34.0886 18.2276 34.3082 18.2276 34.5372V39.7178C18.2276 39.9468 18.3236 40.1664 18.4947 40.3283C18.6657 40.4902 18.8976 40.5812 19.1395 40.5812C19.3813 40.5812 19.6133 40.4902 19.7843 40.3283C19.9553 40.1664 20.0514 39.9468 20.0514 39.7178V34.5372C20.0514 34.3082 19.9553 34.0886 19.7843 33.9267C19.6133 33.7647 19.3813 33.6738 19.1395 33.6738Z" fill="#E6C0A2"/>
<path d="M28.2584 33.6738C28.0166 33.6738 27.7846 33.7647 27.6136 33.9267C27.4426 34.0886 27.3465 34.3082 27.3465 34.5372V39.7178C27.3465 39.9468 27.4426 40.1664 27.6136 40.3283C27.7846 40.4902 28.0166 40.5812 28.2584 40.5812C28.5003 40.5812 28.7322 40.4902 28.9032 40.3283C29.0742 40.1664 29.1703 39.9468 29.1703 39.7178V34.5372C29.1703 34.3082 29.0742 34.0886 28.9032 33.9267C28.7322 33.7647 28.5003 33.6738 28.2584 33.6738Z" fill="#E6C0A2"/>
</svg>
